# xmcd
#
# Track frame offsets: 
#        150
#        18072
#        43222
#        66487
#        90870
#        113595
#        143990
#        163930
#        179387
#        189940
#
# Disc length: 3009 seconds
#
# Revision: 0
# Processed by: cddbd v1.5.1PL0 Copyright (c) Steve Scherf et al.
# Submitted via: ExactAudioCopy v0.95a5
#
DISCID=7f0bbf0a
DTITLE=Various Artist - All Time Gospel Greats
DYEAR=1996
DGENRE=Gospel
TTITLE0=Draw Me Nearer (Commisioned)
TTITLE1=We Need A Miracle (Rev. Timothy Wright and Debbie Thorpe)
TTITLE2=Oh Happy Day (The Edwin Hawkins Singer)
TTITLE3=Rough Side Of The Mountain (Rev. F.C. Barnes)
TTITLE4=You've Been Good To Me (Rev. Lawrence Thomison)
TTITLE5=It's So Hard To Get Alone (Dottie Peoples and The Peoples Choi
TTITLE5=ce Chorale)
TTITLE6=Sing And Shout (Mighty Cloudes Of Joy)
TTITLE7=No Charge (Shirley Caesar)
TTITLE8=Clean Inside (Hezekiah Walker)
TTITLE9=He's Preparing Me (Wilmington Chester Mass Choir)
EXTD=
EXTT0=
EXTT1=
EXTT2=
EXTT3=
EXTT4=
EXTT5=
EXTT6=
EXTT7=
EXTT8=
EXTT9=
PLAYORDER=
